<svg width="23.999999999999996" height="23.999999999999996" xmlns="http://www.w3.org/2000/svg" fill="#000000">

 <g>
  <title>Layer 1</title>
  <path id="svg_1" fill="none" d="m0,0l24,0l0,24l-24,0l0,-24z"/>
  <path fill="#f5a97f" id="svg_2" d="m20,15.31l1.9,-1.9c0.78,-0.78 0.78,-2.05 0,-2.83l-1.9,-1.89l0,-2.69c0,-1.1 -0.9,-2 -2,-2l-2.69,0l-1.9,-1.9c-0.78,-0.78 -2.05,-0.78 -2.83,0l-1.89,1.9l-2.69,0c-1.1,0 -2,0.9 -2,2l0,2.69l-1.9,1.9c-0.78,0.78 -0.78,2.05 0,2.83l1.9,1.9l0,2.68c0,1.1 0.9,2 2,2l2.69,0l1.9,1.9c0.78,0.78 2.05,0.78 2.83,0l1.9,-1.9l2.68,0c1.1,0 2,-0.9 2,-2l0,-2.69zm-8,2.69c-3.31,0 -6,-2.69 -6,-6s2.69,-6 6,-6s6,2.69 6,6s-2.69,6 -6,6z"/>
 </g>
</svg>