<svg width="24.000000000000004" height="24.000000000000004" xmlns="http://www.w3.org/2000/svg" fill="#000000">

 <g>
  <title>Layer 1</title>
  <path id="svg_1" fill="none" d="m0,0l24,0l0,24l-24,0l0,-24z"/>
  <path fill="#f5a97f" id="svg_2" d="m20,15.31l2.6,-2.6c0.39,-0.39 0.39,-1.02 0,-1.41l-2.6,-2.61l0,-3.69c0,-0.55 -0.45,-1 -1,-1l-3.69,0l-2.6,-2.6c-0.39,-0.39 -1.02,-0.39 -1.41,0l-2.61,2.6l-3.69,0c-0.55,0 -1,0.45 -1,1l0,3.69l-2.6,2.6c-0.39,0.39 -0.39,1.02 0,1.41l2.6,2.6l0,3.7c0,0.55 0.45,1 1,1l3.69,0l2.6,2.6c0.39,0.39 1.02,0.39 1.41,0l2.6,-2.6l3.7,0c0.55,0 1,-0.45 1,-1l0,-3.69zm-8,1.59l0,-9.8c0,-0.61 0.55,-1.11 1.15,-0.99c2.76,0.54 4.85,2.97 4.85,5.89s-2.09,5.35 -4.85,5.89c-0.6,0.12 -1.15,-0.38 -1.15,-0.99z"/>
 </g>
</svg>