<svg width="960" height="960" xmlns="http://www.w3.org/2000/svg">

 <g>
  <title>Layer 1</title>
  <path fill="#eed49f" id="svg_1" d="m180,840q-24,0 -42,-18t-18,-42l0,-600q0,-24 18,-42t42,-18l600,0q24,0 42,18t18,42l0,600q0,24 -18,42t-42,18l-600,0zm284,-166l32,0q5,0 9,-3.5t5,-8.5l8,-42q20,-6 34,-15t26,-21l50,15q5,2 10.5,-0.5t7.5,-7.5l14,-30q2,-5 1,-10.5t-6,-8.5l-36,-23q4,-21 4,-39t-4,-39l36,-23q5,-3 6,-8.5t-1,-10.5l-14,-30q-2,-5 -7.5,-7.5t-10.5,-0.5l-50,15q-12,-12 -26,-21t-34,-15l-8,-42q-1,-5 -5,-8.5t-9,-3.5l-32,0q-5,0 -9,3.5t-5,8.5l-8,42q-20,6 -34,15t-26,21l-50,-15q-5,-2 -10.5,0.5t-7.5,7.5l-14,30q-2,5 -1,10.5t6,8.5l36,23q-4,21 -4,39t4,39l-36,23q-5,3 -6,8.5t1,10.5l14,30q2,5 7.5,7.5t10.5,0.5l50,-15q12,12 26,21t34,15l8,42q1,5 5,8.5t9,3.5zm16,-109q-36,0 -60.5,-24.5t-24.5,-60.5q0,-36 24.5,-60.5t60.5,-24.5q36,0 60.5,24.5t24.5,60.5q0,36 -24.5,60.5t-60.5,24.5z"/>
 </g>
</svg>