<svg width="48" height="48" xmlns="http://www.w3.org/2000/svg">

 <g>
  <title>Layer 1</title>
  <path fill="#91d7e3" id="svg_1" d="m42,36.35l-30.35,-30.35l27.35,0q1.2,0 2.1,0.9q0.9,0.9 0.9,2.1l0,27.35zm-2.75,7.75l-2.15,-2.1l-28.1,0q-1.2,0 -2.1,-0.9q-0.9,-0.9 -0.9,-2.1l0,-28.1l-2.1,-2.1q-0.45,-0.45 -0.45,-1.075t0.45,-1.075q0.45,-0.45 1.075,-0.45t1.075,0.45l35.35,35.35q0.45,0.45 0.45,1.05q0,0.6 -0.45,1.05q-0.45,0.45 -1.075,0.45t-1.075,-0.45zm-25.95,-9.95l16,0l-4.5,-4.5l-2.5,3.25l-4.05,-5.55q-0.25,-0.3 -0.6,-0.3t-0.6,0.3l-4.3,5.6q-0.3,0.4 -0.1,0.8q0.2,0.4 0.65,0.4z"/>
 </g>
</svg>