<svg width="48" height="48" xmlns="http://www.w3.org/2000/svg">
 <g>
  <title>Layer 1</title>
  <path d="m36.5,45q-0.65,0 -1.075,-0.425q-0.425,-0.425 -0.425,-1.075l0,-5.5l-5.5,0q-0.65,0 -1.075,-0.425q-0.425,-0.425 -0.425,-1.075q0,-0.65 0.425,-1.075q0.425,-0.425 1.075,-0.425l5.5,0l0,-5.5q0,-0.65 0.425,-1.075q0.425,-0.425 1.075,-0.425q0.65,0 1.075,0.425q0.425,0.425 0.425,1.075l0,5.5l5.5,0q0.65,0 1.075,0.425q0.425,0.425 0.425,1.075q0,0.65 -0.425,1.075q-0.425,0.425 -1.075,0.425l-5.5,0l0,5.5q0,0.65 -0.425,1.075q-0.425,0.425 -1.075,0.425zm-26.5,-10l0,-5.5q0,-0.65 0.425,-1.075q0.425,-0.425 1.075,-0.425q0.65,0 1.075,0.425q0.425,0.425 0.425,1.075l0,5.5l5.5,0q0.65,0 1.075,0.425q0.425,0.425 0.425,1.075q0,0.65 -0.425,1.075q-0.425,0.425 -1.075,0.425l-5.5,0q-1.25,0 -2.125,-0.875t-0.875,-2.125zm1.5,-15q-0.65,0 -1.075,-0.425q-0.425,-0.425 -0.425,-1.075l0,-5.5q0,-1.25 0.875,-2.125t2.125,-0.875l5.5,0q0.65,0 1.075,0.425q0.425,0.425 0.425,1.075q0,0.65 -0.425,1.075q-0.425,0.425 -1.075,0.425l-5.5,0l0,5.5q0,0.65 -0.425,1.075q-0.425,0.425 -1.075,0.425zm25,0q-0.65,0 -1.075,-0.425q-0.425,-0.425 -0.425,-1.075l0,-5.5l-5.5,0q-0.65,0 -1.075,-0.425q-0.425,-0.425 -0.425,-1.075q0,-0.65 0.425,-1.075q0.425,-0.425 1.075,-0.425l5.5,0q1.25,0 2.125,0.875t0.875,2.125l0,5.5q0,0.65 -0.425,1.075q-0.425,0.425 -1.075,0.425z" id="svg_1" fill="#91d7e3"/>
 </g>

</svg>