<svg width="47.99999999999999" height="47.99999999999999" xmlns="http://www.w3.org/2000/svg">

 <g>
  <title>Layer 1</title>
  <path fill="#91d7e3" id="svg_1" d="m13.3,34.15l21.45,0q0.5,0 0.7,-0.4q0.2,-0.4 -0.1,-0.8l-5.85,-7.8q-0.25,-0.3 -0.6,-0.3t-0.6,0.3l-6,7.75l-4.05,-5.55q-0.25,-0.3 -0.6,-0.3t-0.6,0.3l-4.3,5.6q-0.25,0.4 -0.075,0.8t0.625,0.4zm-4.3,7.85q-1.2,0 -2.1,-0.9q-0.9,-0.9 -0.9,-2.1l0,-30q0,-1.2 0.9,-2.1q0.9,-0.9 2.1,-0.9l30,0q1.2,0 2.1,0.9q0.9,0.9 0.9,2.1l0,30q0,1.2 -0.9,2.1q-0.9,0.9 -2.1,0.9l-30,0z"/>
 </g>
</svg>