<svg width="24" height="24" xmlns="http://www.w3.org/2000/svg" fill="#000000">

 <g>
  <title>Layer 1</title>
  <path fill="#8aadf4" id="svg_1" d="m3.63,3.63c-0.39,0.39 -0.39,1.02 0,1.41l3.66,3.66l-0.29,0.3l-3,0c-0.55,0 -1,0.45 -1,1l0,4c0,0.55 0.45,1 1,1l3,0l3.29,3.29c0.63,0.63 1.71,0.18 1.71,-0.71l0,-4.17l4.18,4.18c-0.49,0.37 -1.02,0.68 -1.6,0.91c-0.36,0.15 -0.58,0.53 -0.58,0.92c0,0.72 0.73,1.18 1.39,0.91c0.8,-0.33 1.55,-0.77 2.22,-1.31l1.34,1.34c0.39,0.39 1.02,0.39 1.41,0c0.39,-0.39 0.39,-1.02 0,-1.41l-15.31,-15.32c-0.39,-0.39 -1.02,-0.39 -1.42,0zm15.37,8.37c0,0.82 -0.15,1.61 -0.41,2.34l1.53,1.53c0.56,-1.17 0.88,-2.48 0.88,-3.87c0,-3.83 -2.4,-7.11 -5.78,-8.4c-0.59,-0.23 -1.22,0.23 -1.22,0.86l0,0.19c0,0.38 0.25,0.71 0.61,0.85c2.57,1.04 4.39,3.56 4.39,6.5zm-8.71,-6.29l-0.17,0.17l1.88,1.88l0,-1.35c0,-0.89 -1.08,-1.33 -1.71,-0.7zm6.21,6.29c0,-1.77 -1.02,-3.29 -2.5,-4.03l0,1.79l2.48,2.48c0.01,-0.08 0.02,-0.16 0.02,-0.24z"/>
 </g>
</svg>